<?xml version="1.0" encoding="utf-8"?>
<!-- Generator: Adobe Illustrator 25.3.1, SVG Export Plug-In . SVG Version: 6.00 Build 0)  -->
<svg version="1.1" id="Layer_1" xmlns="http://www.w3.org/2000/svg" xmlns:xlink="http://www.w3.org/1999/xlink" x="0px" y="0px"
	 viewBox="0 0 685 435" style="enable-background:new 0 0 685 435;" xml:space="preserve">
<style type="text/css">
	.st0{fill:#EF3842;}
	.st1{fill:#25347A;}
</style>
<g>
	<path class="st0" d="M301.5,116.2c0.2-0.2,0.5-0.3,0.7-0.3c0.4,0,0.6,0.3,0.6,0.7c0,0.2-0.1,0.5-0.3,0.7
		c-8.8,11-15.3,23.8-15.3,41.6c0,17.8,6.4,30.4,15.3,41.4c0.2,0.2,0.3,0.5,0.3,0.7c0,0.4-0.2,0.7-0.6,0.7c-0.2,0-0.4-0.1-0.7-0.3
		L263.8,165c-1.9-1.6-3.1-3.5-3.1-6.2c0-2.7,1.2-4.6,3.1-6.2L301.5,116.2"/>
	<path class="st1" d="M330.4,113.2c-14.7,0-20.5,20.9-20.5,45.8c0,24.9,5.8,45.5,20.5,45.5c8.8,0,16.4-5.2,16.4-9.4
		c0-0.9-0.4-1.8-1.1-2.6c-4.2-4.1-5.8-8.1-5.8-11.7c0-6.8,5.9-11.9,11.3-11.9c7.5,0,11.9,5.9,11.9,13.5c0,7.2-3.1,13.3-6.4,18.1
		c-0.1,0.2-0.2,0.4-0.2,0.6c0,0.4,0.2,0.7,0.6,0.7c0.2,0,0.4-0.1,0.7-0.4l37.6-36.4c1.9-1.6,3.1-3.5,3.1-6.2c0-2.7-1.2-4.6-3.1-6.2
		l-37.6-36.4c-0.3-0.3-0.5-0.4-0.7-0.4c-0.3,0-0.6,0.3-0.6,0.7c0,0.2,0.1,0.4,0.2,0.6c3.3,4.8,6.4,10.8,6.4,18.1
		c0,7.6-4.4,13.5-11.9,13.5c-5.5,0-11.4-5.1-11.3-11.9c0-3.6,1.6-7.6,5.8-11.7c0.8-0.8,1.1-1.7,1.1-2.6
		C346.8,118.3,339.2,113.2,330.4,113.2"/>
	<path class="st1" d="M269.4,245c0-1.9,0.8-3.5,2.3-4.6c1.4-1.1,3.5-1.6,5.8-1.6c1.5,0,3,0.3,4,0.7v-2.2c0-2.2-0.9-3.5-3.3-3.5
		c-0.5,0-1.5,0.1-2.3,0.4c0.1,0.3,0.1,0.6,0.1,1c0,0.7-0.2,1.4-0.7,1.9c-0.4,0.5-1.1,0.8-1.9,0.8c-1.4,0-2.5-1.2-2.5-2.6
		c0-2.7,3.3-4.5,7.6-4.5c3.4,0,5.6,0.8,6.8,2.3c1.1,1.3,1.1,3.3,1.1,6v7.2c0,1.4,0.8,1.8,2.5,2l0.2,0l0,0.2c-0.1,1.9-1.5,2.7-3,2.8
		c-0.1,0-0.3,0-0.4,0c-1.5,0-2.9-0.7-3.6-2.2c-0.9,0.8-3,2.2-5.7,2.2C272.4,251.4,269.4,248.7,269.4,245 M392.2,250.5
		c-0.4-0.5-0.5-1.1-0.7-1.9c-0.2,0.2-0.4,0.5-0.8,0.8c-1.3,1.2-3,2-4.9,2c-2.1,0-3.9-0.8-5-2.2c-1.8-2.1-1.7-4.7-1.8-8.5v-3.6
		c0-1.5-0.5-2-1.9-2c-0.2,0-0.4,0-0.6,0l-0.2,0l-0.1-0.2c-0.1-0.3-0.2-0.5-0.2-0.8c0-1.8,2.3-2.7,3.6-3c0.5-0.1,0.9-0.1,1.3-0.1
		c1.1,0,1.8,0.3,2.3,1c0.5,0.6,0.7,1.5,0.7,2.4l0,6.2c0,2.3,0.2,4,0.7,5.1c0.5,1.1,1.3,1.6,2.7,1.6c1.6,0,2.5-0.7,3.1-1.7
		c0.6-1,0.8-2.3,0.8-3.6v-5c0-1.5-0.5-2-1.8-2c-0.2,0-0.4,0-0.6,0l-0.2,0l-0.1-0.2c-0.1-0.3-0.2-0.5-0.2-0.8c0-1.8,2.3-2.7,3.6-3
		c0.5-0.1,0.9-0.1,1.3-0.1c1.1,0,1.8,0.3,2.3,0.9c0.5,0.6,0.7,1.5,0.7,2.4c0,0.7-0.1,2-0.1,7.2c0,2.2,0,3.4,0,3.8
		c0,1.5,0.5,2.2,1.9,2.2c0.2,0,0.3,0,0.5,0l0.2,0l0.1,0.2c0.1,0.3,0.2,0.5,0.2,0.8c-0.1,1.7-2.3,2.4-3.6,2.7
		c-0.4,0.1-0.9,0.1-1.2,0.1h0C393.3,251.4,392.6,251.1,392.2,250.5 M321.9,241.5c0-3.1,1-5.7,2.8-7.6c1.8-1.9,4.3-3,7.3-3
		c2.7,0,4.8,1,6.1,2.5c1.3,1.4,2,3.3,2,5.1c0,1-0.2,2-0.7,2.8l-0.1,0.1h-12.2c0.2,3.5,2.5,6,6.4,6c2.4,0,4.3-1.3,4.9-2.1l0.1-0.2
		l0.2,0.1c0.4,0.3,0.7,0.7,0.7,1.6c0,2-2.4,4.7-7.7,4.7C326.3,251.4,321.9,247.1,321.9,241.5 M365.1,251.4c-2.7,0-5.2-1-7.1-2.8
		c-1.8-1.8-2.9-4.4-2.9-7.5c0-6.1,4.8-10.2,10.2-10.2c2.9,0,5.4,1,7.2,2.8c1.8,1.8,2.8,4.4,2.8,7.4c0,3-1.1,5.6-2.9,7.4
		C370.6,250.3,368,251.4,365.1,251.4L365.1,251.4z M402.5,250.8c-0.8-0.2-1.4-0.7-1.4-1.4c0-0.3,0.1-0.6,0.2-0.9l0-0.1l0.1,0
		c0.3-0.1,0.9-0.2,1.3-0.6c0.5-0.4,0.7-1,0.7-2.6v-8.2c0-1.4-0.4-1.9-1.5-1.9c-0.3,0-0.6,0-0.9,0.1l-0.2,0l-0.1-0.2
		c-0.1-0.3-0.2-0.6-0.2-0.9c0-1.6,1.8-2.5,3-2.9c0.5-0.1,0.9-0.2,1.4-0.2c1.6,0,2.5,1.2,2.9,2.7c1.1-1.8,2.8-2.9,4.5-2.9
		c1.6,0,3.2,1,3.2,3c0,1.4-1,2.9-2.6,2.9c-1.2,0-2.3-0.8-2.5-2c-0.9,0.3-2.2,1.5-2.2,5.5v4.9c0,1.6,0.2,2.2,0.7,2.6
		c0.5,0.4,1.4,0.5,1.8,0.6l0.1,0l0.1,0.1c0.2,0.4,0.2,0.7,0.2,1c0,0.7-0.5,1.1-1.3,1.3c-0.8,0.2-2,0.3-3.6,0.3
		C404.6,251.1,403.3,251,402.5,250.8 M343.4,250.7c-0.8-0.2-1.4-0.7-1.4-1.4c0-0.3,0.1-0.6,0.2-0.9l0-0.1l0.1,0
		c0.3-0.1,0.9-0.2,1.3-0.6c0.5-0.4,0.7-1,0.7-2.6v-10.8l-2.9-0.1l-0.1-0.1c-0.1-0.4-0.2-0.7-0.2-1c0-1.1,0.8-1.8,1.8-1.8h1.3v-1.2
		c0-2.9,0.5-4.5,1.3-5.6c1.1-1.8,3.1-3,6.1-3c3.7,0,6.9,1.7,6.9,4.5c0,1.2-0.8,2.7-2.6,2.7c-1.3,0-2.5-1.1-2.5-2.5
		c0-0.5,0.2-1,0.4-1.4c-0.4-0.3-1.1-0.6-1.9-0.5c-1.2,0-1.8,0.4-2.2,1.1c-0.4,0.7-0.5,1.7-0.5,2.8v3.1h5l0.1,0.1
		c0.1,0.4,0.2,0.7,0.2,1c0,1.1-0.8,1.9-1.7,2c-0.4,0-0.8,0-1.1,0c-0.8,0-1.6-0.1-2.2-0.1v10.7c0,1.6,0.3,2.2,0.8,2.6
		c0.4,0.4,1.7,0.5,2,0.6l0.1,0l0.1,0.1c0.1,0.3,0.2,0.6,0.2,0.8c0,0.7-0.6,1.2-1.5,1.4c-0.9,0.3-2.2,0.4-3.9,0.4
		C345.5,251.1,344.3,251,343.4,250.7 M308.7,250.8c-0.9-0.2-1.4-0.7-1.4-1.4c0-0.3,0.1-0.6,0.2-0.9l0-0.1l0.1,0
		c0.3-0.1,0.9-0.2,1.4-0.6c0.5-0.4,0.7-1,0.7-2.6v-8.2c0-1.4-0.4-1.9-1.5-1.9c-0.3,0-0.6,0-0.9,0.1l-0.2,0l-0.1-0.2
		c-0.1-0.3-0.2-0.6-0.2-0.9c0-1.6,1.8-2.5,3-2.8c0.5-0.2,0.9-0.2,1.3-0.2c1.6,0,2.5,1.2,2.9,2.7c1.1-1.7,2.8-2.9,4.5-2.9
		c1.6,0,3.2,1,3.2,3c0,1.4-1,2.9-2.6,2.9c-1.2,0-2.3-0.8-2.5-2c-0.9,0.3-2.3,1.5-2.3,5.5v4.9c0,1.6,0.2,2.2,0.7,2.6
		c0.5,0.4,1.4,0.5,1.8,0.6l0.1,0l0.1,0.1c0.1,0.3,0.2,0.7,0.2,1c0,0.7-0.5,1.1-1.3,1.3c-0.8,0.2-2,0.3-3.6,0.3
		C310.8,251.1,309.6,251,308.7,250.8 M292.4,250.8c-0.8-0.2-1.4-0.7-1.4-1.4c0-0.3,0.1-0.6,0.2-0.9l0-0.1l0.1,0
		c0.3-0.1,0.9-0.2,1.3-0.6c0.5-0.4,0.7-1,0.7-2.6v-8.2c0-1.4-0.3-1.9-1.5-1.9c-0.3,0-0.6,0-0.9,0.1l-0.2,0l-0.1-0.2
		c-0.1-0.3-0.2-0.6-0.2-0.9c0-1.6,1.8-2.5,3-2.8c0.5-0.2,0.9-0.2,1.3-0.2c1.6,0,2.5,1.2,2.9,2.6c1.1-1.7,2.8-2.9,4.5-2.9
		c1.6,0,3.2,1,3.2,3c0,1.4-1,2.9-2.6,2.9c-1.2,0-2.3-0.8-2.5-2c-0.9,0.3-2.3,1.5-2.3,5.5v4.9c0,1.6,0.2,2.2,0.7,2.6
		c0.5,0.4,1.4,0.5,1.8,0.6l0.1,0l0,0.1c0.2,0.3,0.2,0.7,0.2,1c0,0.7-0.5,1.1-1.3,1.3c-0.8,0.2-2,0.3-3.6,0.3
		C294.5,251.1,293.2,251,292.4,250.8 M360.7,240.5c0,5.4,2.3,7.7,4.6,7.7c2.6,0,4.5-2.3,4.5-6.9c0-2.4-0.5-4.3-1.4-5.5
		c-0.9-1.3-2-2-3.4-2C362.4,233.9,360.7,236.3,360.7,240.5 M278.3,241.6c-2.2,0-3.6,1-3.6,3c0,1.9,1.3,3.2,3.3,3.2
		c1.3,0,2.6-0.7,3.5-1.8v-2.8c0-0.4-0.2-0.8-0.8-1.1C280.2,241.9,279.4,241.6,278.3,241.6 M334.3,238.4c0.4,0,0.5-0.1,0.6-0.2
		c0.1-0.1,0.1-0.4,0.1-0.7c0-1.9-1.5-3.6-3.7-3.6c-2.8,0-4,2.3-4.1,4.5H334.3z M247.5,247.8c-2.4-2.4-3.9-6-3.9-10.4
		c0-4.2,1.5-7.8,3.8-10.3c2.3-2.5,5.5-4,8.9-4c6,0,10.3,4.2,10.3,7.9c0,1.9-1.2,3.5-2.9,3.5c-0.8,0-1.6-0.3-2.2-0.8
		c-0.6-0.5-0.9-1.3-0.9-2.3c0-1.1,0.6-1.8,1-2.3c-0.8-1.4-2.4-2.5-4.8-2.5c-2.1,0-3.8,1.1-5.1,3c-1.3,1.9-2,4.6-2,7.9
		c0,3.2,0.8,6,2.1,7.9c1.3,1.9,3.1,3,5.2,3c2.5,0,4-1.1,4.8-2.5c-0.4-0.5-1-1.2-1-2.3c0-0.9,0.3-1.7,0.9-2.3
		c0.6-0.5,1.3-0.8,2.2-0.8c1.7,0,2.9,1.5,2.9,3.4c0,3.7-4.3,7.9-10.3,7.9C253.1,251.6,249.9,250.3,247.5,247.8"/>
</g>
</svg>
