<?xml version="1.0" encoding="utf-8"?>
<!-- Generator: Adobe Illustrator 25.0.1, SVG Export Plug-In . SVG Version: 6.00 Build 0)  -->
<svg version="1.0" id="katman_1" xmlns="http://www.w3.org/2000/svg" xmlns:xlink="http://www.w3.org/1999/xlink" x="0px" y="0px"
	 viewBox="0 0 678 423.6" style="enable-background:new 0 0 678 423.6;" xml:space="preserve">
<g>
	<rect x="433.8" y="280.6" width="79" height="13.1"/>
	<polygon points="585.3,203.9 559.2,241.1 533.1,203.9 515.1,203.9 551.3,255 551.3,293.8 567,293.8 567,255 567.1,255 603.2,203.9 
			"/>
	<path d="M112,247.1l-1.2-0.9l1.1-1.1c4.2-4.3,6.7-10.1,6.7-16.2c0-13.8-12.7-25-28.3-25H48v89.9h44.6c16.5,0,30-11.9,30-26.5
		C122.6,259.5,118.7,252.2,112,247.1 M63.7,217h26.5c7.4,0,13.3,5.3,13.3,11.9c0,6.6-6,11.9-13.3,11.9H63.7V217z M92.6,280.6H63.7
		v-26.7h28.9c8.3,0,15,6,15,13.4S100.9,280.6,92.6,280.6"/>
	<polygon points="384.9,263.8 358.9,203.9 341.6,203.9 381.2,293.8 388.5,293.8 428.2,203.9 410.9,203.9 	"/>
	<path d="M185.2,202.1c-25.8,0-46.7,21-46.7,46.8s21,46.7,46.8,46.7c25.8,0,46.7-21,46.7-46.8C232,223,211.1,202.1,185.2,202.1
		C185.2,202.1,185.2,202.1,185.2,202.1z M185.2,280.2c-17.3,0-31.4-14-31.4-31.3c0-17.3,14-31.4,31.4-31.4c17.3,0,31.4,14,31.4,31.4
		c0,0,0,0,0,0C216.5,266.1,202.5,280.1,185.2,280.2L185.2,280.2z"/>
	<polygon points="309.6,261.8 258.5,203.9 250.7,203.9 250.7,293.8 266.4,293.8 266.4,235.8 317.4,293.8 325.2,293.8 325.2,203.9 
		309.6,203.9 	"/>
	<path d="M473.3,202.1c-17.3,0-31.4,14-31.4,31.4s14,31.4,31.4,31.4s31.4-14,31.4-31.4C504.6,216.1,490.6,202.1,473.3,202.1z
		 M473.3,251.5c-10,0-18.1-8.1-18.1-18.1c0-10,8.1-18.1,18.1-18.1c10,0,18.1,8.1,18.1,18.1c0,0,0,0,0,0
		C491.3,243.4,483.3,251.5,473.3,251.5z"/>
	<polygon points="133,143.4 133,173.9 124.6,173.9 124.6,128.9 124.7,128.9 124.6,128.9 134,128.9 147.9,153.8 161.8,128.9 
		171.1,128.9 171.1,128.9 171.1,128.9 171.1,173.9 162.8,173.9 162.8,143.4 150.9,165.2 144.9,165.2 	"/>
	<polygon points="491.6,128.9 491.6,136.6 504.9,136.6 504.9,173.9 513.3,173.9 513.3,136.6 526.6,136.6 526.6,128.9 	"/>
	<polygon points="443.1,128.9 443.1,136.6 456.4,136.6 456.4,173.9 464.8,173.9 464.8,136.6 478,136.6 478,128.9 	"/>
	<rect x="359.5" y="128.9" width="8.4" height="45"/>
	<path d="M256.2,155.7h6.8l12.6,18.2h9.6l-12.7-18.4c7.2-1,12.7-6.5,12.7-13.2l0,0c0-7.4-6.8-13.4-15.1-13.4h-22.3v45h8.4V155.7z
		 M256.2,136h13.9c3.9,0,7.1,2.8,7.1,6.3l0,0c0,3.5-3.2,6.3-7.1,6.3h-13.9V136z"/>
	<path d="M210.1,143.9l6.5,14.1h-13.1L210.1,143.9z M208.1,128.9l-20.8,45h9l4-8.6H220l4,8.6h9l-20.9-45H208.1z"/>
	<path d="M325.3,128.9H303v45h8.4v-18.2h6.8l12.6,18.2h9.6l-12.7-18.4c7.2-1,12.7-6.5,12.7-13.2l0,0
		C340.4,134.9,333.6,128.9,325.3,128.9 M332.4,142.3L332.4,142.3c0,3.5-3.2,6.3-7.1,6.3h-13.9V136h13.9
		C329.2,136,332.4,138.8,332.4,142.3L332.4,142.3z"/>
	<path d="M408.1,128c-12.9,0-23.4,10.5-23.4,23.4s10.5,23.4,23.4,23.4s23.4-10.5,23.4-23.4C431.5,138.5,421.1,128,408.1,128
		C408.1,128,408.1,128,408.1,128z M408.1,166.4c-8.3,0-15-6.7-15-15s6.7-15,15-15s15,6.7,15,15S416.4,166.4,408.1,166.4z"/>
	<path d="M612.8,205.1h-3.6v-1.4h8.7v1.4h-3.6v9.9h-1.5V205.1z"/>
	<path d="M620.7,215h-1.4v-11.3h2.2l2.8,8.7c0.1,0.3,0.2,0.6,0.3,0.9c0.1-0.3,0.2-0.6,0.3-0.9l2.9-8.7h2.2V215h-1.5v-9.6
		c-0.1,0.3-0.2,0.7-0.3,1l-2.9,8.6h-1.5l-2.8-8.6c-0.1-0.3-0.2-0.7-0.3-1L620.7,215z"/>
</g>
</svg>
