<svg width="582" height="168" viewBox="0 0 582 168" fill="none" xmlns="http://www.w3.org/2000/svg">
<path d="M464.8 152.6H385.8V165.7H464.8V152.6Z" fill="black"/>
<path d="M537.3 75.8999L511.2 113.1L485.1 75.8999H467.1L503.3 127V165.8H519V127H519.1L555.2 75.8999H537.3Z" fill="black"/>
<path d="M64 119.1L62.8 118.2L63.9 117.1C68.1 112.8 70.6 107 70.6 100.9C70.6 87.0999 57.9 75.8999 42.3 75.8999H0V165.8H44.6C61.1 165.8 74.6 153.9 74.6 139.3C74.6 131.5 70.7 124.2 64 119.1ZM15.7 88.9999H42.2C49.6 88.9999 55.5 94.2999 55.5 100.9C55.5 107.5 49.5 112.8 42.2 112.8H15.7V88.9999ZM44.6 152.6H15.7V125.9H44.6C52.9 125.9 59.6 131.9 59.6 139.3C59.6 146.7 52.9 152.6 44.6 152.6Z" fill="black"/>
<path d="M336.9 135.8L310.9 75.8999H293.6L333.2 165.8H340.5L380.2 75.8999H362.9L336.9 135.8Z" fill="black"/>
<path d="M137.2 74.1001C111.4 74.1001 90.5 95.1001 90.5 120.9C90.5 146.7 111.5 167.6 137.3 167.6C163.1 167.6 184 146.6 184 120.8C184 95.0001 163.1 74.1001 137.2 74.1001ZM137.2 152.2C119.9 152.2 105.8 138.2 105.8 120.9C105.8 103.6 119.8 89.5001 137.2 89.5001C154.5 89.5001 168.6 103.5 168.6 120.9C168.5 138.1 154.5 152.1 137.2 152.2Z" fill="black"/>
<path d="M261.6 133.8L210.5 75.8999H202.7V165.8H218.4V107.8L269.4 165.8H277.2V75.8999H261.6V133.8Z" fill="black"/>
<path d="M425.3 74.1001C408 74.1001 393.9 88.1001 393.9 105.5C393.9 122.9 407.9 136.9 425.3 136.9C442.7 136.9 456.7 122.9 456.7 105.5C456.6 88.1001 442.6 74.1001 425.3 74.1001ZM425.3 123.5C415.3 123.5 407.2 115.4 407.2 105.4C407.2 95.4001 415.3 87.3001 425.3 87.3001C435.3 87.3001 443.4 95.4001 443.4 105.4C443.3 115.4 435.3 123.5 425.3 123.5Z" fill="black"/>
<path d="M85 15.3999V45.8999H76.6V0.899902H76.7H76.6H86L99.9 25.7999L113.8 0.899902H123.1V45.8999H114.8V15.3999L102.9 37.1999H96.9L85 15.3999Z" fill="black"/>
<path d="M443.6 0.899902V8.59991H456.9V45.8999H465.3V8.59991H478.6V0.899902H443.6Z" fill="black"/>
<path d="M395.1 0.899902V8.59991H408.4V45.8999H416.8V8.59991H430V0.899902H395.1Z" fill="black"/>
<path d="M319.9 0.899902H311.5V45.8999H319.9V0.899902Z" fill="black"/>
<path d="M208.2 27.6999H215L227.6 45.8999H237.2L224.5 27.4999C231.7 26.4999 237.2 20.9999 237.2 14.2999C237.2 6.89991 230.4 0.899902 222.1 0.899902H199.8V45.8999H208.2V27.6999ZM208.2 7.99991H222.1C226 7.99991 229.2 10.7999 229.2 14.2999C229.2 17.7999 226 20.5999 222.1 20.5999H208.2V7.99991Z" fill="black"/>
<path d="M162.1 15.8999L168.6 29.9999H155.5L162.1 15.8999ZM160.1 0.899902L139.3 45.8999H148.3L152.3 37.2999H172L176 45.8999H185L164.1 0.899902H160.1Z" fill="black"/>
<path d="M277.3 0.899902H255V45.8999H263.4V27.6999H270.2L282.8 45.8999H292.4L279.7 27.4999C286.9 26.4999 292.4 20.9999 292.4 14.2999C292.4 6.89991 285.6 0.899902 277.3 0.899902ZM284.4 14.2999C284.4 17.7999 281.2 20.5999 277.3 20.5999H263.4V7.99991H277.3C281.2 7.99991 284.4 10.7999 284.4 14.2999Z" fill="black"/>
<path d="M360.1 0C347.2 0 336.7 10.5 336.7 23.4C336.7 36.3 347.2 46.8 360.1 46.8C373 46.8 383.5 36.3 383.5 23.4C383.5 10.5 373.1 0 360.1 0ZM360.1 38.4C351.8 38.4 345.1 31.7 345.1 23.4C345.1 15.1 351.8 8.39999 360.1 8.39999C368.4 8.39999 375.1 15.1 375.1 23.4C375.1 31.7 368.4 38.4 360.1 38.4Z" fill="black"/>
<path d="M564.8 77.1H561.2V75.7H569.9V77.1H566.3V87H564.8V77.1Z" fill="black"/>
<path d="M572.7 87H571.3V75.7H573.5L576.3 84.3999C576.4 84.6999 576.5 85 576.6 85.3C576.7 85 576.8 84.6999 576.9 84.3999L579.8 75.7H582V87H580.5V77.3999C580.4 77.6999 580.3 78.0999 580.2 78.3999L577.3 87H575.8L573 78.3999C572.9 78.0999 572.8 77.6999 572.7 77.3999V87Z" fill="black"/>
</svg>
