<svg width="804" height="156" viewBox="0 0 804 156" fill="none" xmlns="http://www.w3.org/2000/svg">
<path d="M165.907 0.627324C172.493 -0.399343 179.8 -0.546009 185.653 3.17399C194.107 8.20066 198.933 17.3073 202.267 26.2407C211.64 52.0007 212.533 80.174 208.6 107.094C207.72 113.987 205.08 121.774 198.32 124.907C194.32 126.254 189.2 125.894 186.427 122.347C181.947 116.934 183.36 109.467 183.733 103.027C185.187 92.854 185.747 82.534 185.28 72.2807C185.24 67.6007 183.667 62.534 179.653 59.774C176.267 57.214 171.373 57.7073 168.013 60.054C162.32 63.7473 158.587 69.694 155.533 75.614C148.04 91.0407 143.893 107.774 138.307 123.921C135.507 131.427 130.987 138.574 124.28 143.147C116.24 148.814 106.027 150.307 96.4 149.961C84.1067 149.374 73.04 141.654 66.5867 131.441C58.5467 118.441 51.3867 104.907 43.5333 91.8007C41.04 87.9873 37.68 83.1073 32.48 83.6673C27.0133 84.174 24.9467 90.294 25.12 95.014C25.5067 111.187 33.3333 125.921 36.12 141.667C37.0933 146.521 35.7067 152.614 30.8133 154.814C27.8267 155.227 24.6933 155.601 21.7333 154.827C17.3867 153.174 15.1333 148.681 13.1867 144.774C6.4 128.507 2.17333 111.241 0 93.7873C0.306667 84.8407 -0.533333 75.774 1.36 66.9473C3.94667 52.5473 7.90667 37.3073 18.5867 26.6673C27.7867 17.3473 43.6267 14.574 54.7867 21.9207C65.6133 29.4273 72.3067 41.0807 79.4133 51.854C84.6267 60.1473 89.4933 69.9073 99.0667 73.894C105.667 77.1073 114.133 75.134 118.987 69.734C122.467 66.1473 124.187 61.3607 126.027 56.814C129.933 47.0273 133.827 37.254 138.107 27.6273C142.973 15.294 152.56 3.82732 165.907 0.627324Z" fill="#00ABE1"/>
<path d="M644.653 31.6805C649.64 31.2939 654.653 31.5205 659.64 31.6939C660.013 36.7072 659.333 41.7605 660.093 46.7472C665.2 46.5739 670.333 46.4272 675.44 46.8272C675.573 51.2672 676.053 55.7605 675.107 60.1472C670.013 60.0539 664.933 60.0805 659.853 60.1739C659.613 70.8939 659.8 81.6406 659.733 92.3606C659.787 96.9072 659.72 102.134 663.187 105.574C666.627 108.867 671.8 108.361 676.2 108.761C676.827 113.361 676.88 118.054 676.027 122.627C667.667 122.721 658.467 122.561 651.64 117.041C645.507 112.161 643.76 103.934 643.56 96.4805C643.44 76.4805 643.64 56.4672 643.48 36.4672C643.827 35.0005 642.667 32.2005 644.653 31.6805Z" fill="#00ABE1"/>
<path d="M266.987 52.4275C274.547 45.6409 285.32 44.8009 295.013 45.1609C302.907 45.1342 310.827 47.3075 317.053 52.2409C324.027 45.0009 334.84 44.9742 344.173 45.1609C352.693 45.1609 361.8 47.6942 367.547 54.3342C371.787 59.3075 372.573 66.1075 372.707 72.4009C372.76 85.6942 372.707 98.9875 372.733 112.294C372.707 115.748 373.107 119.294 372.013 122.628C367.053 122.414 362.093 122.854 357.16 122.374L356.64 121.628C356.107 104.308 357.12 86.9342 356.08 69.6275C356.173 64.0675 351.027 59.9875 345.8 59.6142C339.84 59.2409 332.907 58.5209 328.04 62.7475C324.413 65.7342 324.84 70.8409 324.613 75.0675C324.453 88.8275 324.52 102.601 324.56 116.361C324.227 118.294 325.187 121.054 323.52 122.468C318.467 122.641 313.347 122.828 308.307 122.241C308.307 104.681 308.72 87.1209 307.88 69.5742C307.853 63.6542 301.947 59.6809 296.467 59.5209C291.44 59.2675 285.973 58.8675 281.44 61.4542C278.507 63.0809 276.733 66.3075 276.653 69.6275C275.507 87.2542 276.587 104.934 275.92 122.574C270.813 122.574 265.707 122.534 260.613 122.614C260.107 120.148 259.88 117.641 259.973 115.134C260.147 100.428 259.84 85.7209 260.12 71.0275C260.2 64.3209 261.72 57.0409 266.987 52.4275Z" fill="#00ABE1"/>
<path d="M406.28 46.6806C418.013 44.3606 431.027 43.8806 442.053 49.2272C452.427 54.5472 455.04 67.2139 455.467 77.8539C455.627 89.5339 456.333 102.307 449.933 112.641C443.987 121.961 431.867 124.107 421.627 123.867C411.813 124.134 400.653 122.734 393.773 114.974C386.333 105.694 386.4 93.0006 386.387 81.7072C386.68 72.4672 387.507 62.3606 393.307 54.7472C396.507 50.6272 401.32 48.0539 406.28 46.6806ZM412.96 59.9206C408.32 60.9072 404.92 64.9739 404.013 69.5072C402.347 79.3206 402.347 89.4139 403.96 99.2272C404.88 103.094 407.08 107.134 411.08 108.441C417.053 110.414 423.64 110.307 429.72 108.841C434.147 107.934 436.96 103.827 437.973 99.6806C439.787 89.6006 439.707 79.2406 437.96 69.1606C436.773 64.5072 433.093 60.4139 428.173 59.7339C423.133 59.1339 417.96 59.0406 412.96 59.9206Z" fill="#00ABE1"/>
<path d="M586.093 48.9207C597.013 43.4674 609.84 44.934 621.493 46.6807C623 47.2674 626.013 46.734 626.307 48.9074C626.493 52.574 626.453 56.2674 626.373 59.9474C625.907 60.134 624.973 60.5207 624.507 60.7074C616.067 59.2407 607.387 57.734 598.827 59.094C595.467 59.6674 591.187 61.6807 591.24 65.654C590.48 69.0407 593.427 71.4007 596.093 72.7074C605.48 77.014 616.12 79.014 624.413 85.4674C631.36 90.7607 632.053 100.694 629.84 108.507C626.333 118.427 615.493 123.134 605.653 123.667C596.293 124.094 586.467 123.841 577.72 120.214C576.053 116.107 577.107 111.281 577.253 106.907C587.867 109.467 599.267 112.267 610 108.787C615.493 107.334 617.507 99.3474 612.747 95.9074C603.227 90.0674 591.373 88.934 582.307 82.2274C571.84 73.7874 574.147 54.934 586.093 48.9207Z" fill="#00ABE1"/>
<path d="M694.507 49.7338C694.027 47.8004 696.147 46.6804 697.733 46.6004C708.707 45.1204 719.987 44.2138 730.907 46.6138C737.893 48.3871 744.733 52.6671 747.747 59.4671C751.56 67.6938 750.107 76.9604 750.387 85.7204C750.2 94.3604 751.36 103.56 747.52 111.627C743.813 119.36 734.827 122.574 726.867 123.6C716.933 124.214 706.28 124.334 697.333 119.347C682.613 111.107 683.187 86.0404 698.227 78.4271C709.32 72.5738 722.32 74.4804 734.24 75.8404C734.56 70.2404 733.667 63.2538 727.84 60.7338C717.133 56.5871 705.587 60.0538 694.547 59.9604C694.52 56.5471 694.387 53.1338 694.507 49.7338ZM705.293 106.027C709.747 110.854 716.933 110.494 722.947 110.28C727.013 110.134 731.707 108.427 733.347 104.374C734.733 99.5204 734.04 94.3871 734.267 89.4004C726.68 87.4271 718.547 86.9471 710.84 88.4538C703.16 89.8538 700.16 100.44 705.293 106.027Z" fill="#00ABE1"/>
<path d="M770.373 52.9342C778.813 44.4275 791.853 44.6408 802.973 45.4275C803.293 49.9342 803.2 54.4542 802.893 58.9608C796.747 60.0142 789.6 57.7342 784.28 61.8142C781 64.2008 780.653 68.6142 780.547 72.3208C780.24 88.9608 780.547 105.614 780.387 122.254C775.173 122.934 769.92 122.374 764.693 122.668C763.413 109.121 764.493 95.4142 764.133 81.8008C764.387 72.0275 762.84 60.5608 770.373 52.9342Z" fill="#00ABE1"/>
<path d="M464.333 46.7742C469.96 46.6809 475.68 46.0542 481.24 47.1876C482.587 67.8142 488.427 88.0942 497.547 106.601C499.107 104.588 500.08 102.214 501.027 99.8676C508.173 83.1742 513.12 65.3609 514.107 47.1609C519.64 46.0942 525.32 46.6409 530.92 46.8142C530.173 73.0542 519.16 97.6276 507.347 120.614C506.52 123.094 503.6 122.468 501.627 122.601C497.493 122.468 493.333 122.881 489.24 122.321C488.907 121.908 488.24 121.081 487.907 120.668C475.56 97.8676 465.04 73.0809 464.333 46.7742Z" fill="#00ABE1"/>
<path d="M544.267 46.8409C549.6 46.4409 554.973 46.4942 560.32 46.7875C560.547 71.8409 560.693 96.9475 560.267 121.988C555.333 123.414 549.773 122.121 544.613 122.614C544.333 97.3742 543.92 72.0942 544.267 46.8409Z" fill="#00ABE1"/>
</svg>
