<svg width="803" height="154" viewBox="0 0 803 154" fill="none" xmlns="http://www.w3.org/2000/svg">
<path d="M792.69 117.266V115.053H794.112C794.912 115.053 795.979 115.115 795.979 116.057C795.979 117.079 795.357 117.266 794.468 117.266H792.69ZM792.69 118.821H793.668L795.801 122.687H798.201L795.801 118.661C797.045 118.572 798.112 117.968 798.112 116.271C798.112 114.164 796.69 113.489 794.201 113.489H790.646V122.687H792.69V118.821ZM803 118.102C803 112.698 798.823 109.561 794.112 109.561C789.402 109.561 785.225 112.698 785.225 118.102C785.225 123.505 789.402 126.651 794.112 126.651C798.823 126.651 803 123.505 803 118.102ZM800.512 118.102C800.512 122.039 797.579 124.678 794.112 124.678V124.652C790.646 124.678 787.802 122.039 787.802 118.102C787.802 114.164 790.646 111.534 794.112 111.534C797.579 111.534 800.512 114.164 800.512 118.102Z" fill="black"/>
<path d="M477.236 26.6489L477.245 123.63H504.637V26.6489H477.236ZM261.776 26.5156V123.63H289.407V49.8898L310.817 49.8987C317.91 49.8987 322.958 51.6673 326.379 55.3112C330.708 59.9239 332.476 67.3716 332.476 80.9873V123.63H359.245V69.9757C359.245 31.6792 334.84 26.5156 310.959 26.5156H261.776ZM521.336 26.6578V123.63H565.756C589.424 123.63 597.147 119.692 605.51 110.867C611.411 104.673 615.224 91.0746 615.224 76.2058C615.224 62.5812 611.998 50.4142 606.363 42.842C596.214 29.2974 581.594 26.6578 559.775 26.6578H521.336ZM548.505 47.7657H560.281C577.363 47.7657 588.41 55.4445 588.41 75.3437C588.41 95.2607 577.363 102.931 560.281 102.931H548.505V47.7657ZM437.749 26.6578L414.89 103.508L392.983 26.6578H363.423L394.698 123.63H434.176L465.7 26.6578H437.749ZM627.969 123.63H655.36V26.6578H627.969V123.63ZM704.748 26.6845L666.505 123.594H693.514L699.567 106.468H744.787L750.564 123.594H779.892L741.321 26.6845H704.748ZM722.532 44.3707L739.099 89.7682H705.415L722.532 44.3707Z" fill="black"/>
<path d="M86.3659 45.7058V31.8673C87.7065 31.7723 89.0628 31.6985 90.4456 31.6562C128.287 30.4687 153.109 64.1727 153.109 64.1727C153.109 64.1727 126.298 101.413 97.5495 101.413C93.4117 101.413 89.7015 100.743 86.3659 99.6237V57.6705C101.096 59.4491 104.057 65.9567 112.913 80.7187L132.61 64.1094C132.61 64.1094 118.233 45.2519 93.9976 45.2519C91.3587 45.2519 88.8359 45.4366 86.3659 45.7058ZM86.3659 0V20.6679C87.7223 20.5571 89.0839 20.4726 90.4456 20.4251C143.071 18.6518 177.35 63.5764 177.35 63.5764C177.35 63.5764 137.972 111.462 96.9479 111.462C93.1901 111.462 89.6698 111.113 86.3659 110.528V123.305C89.1895 123.664 92.1239 123.875 95.1798 123.875C133.354 123.875 160.962 104.379 187.7 81.3045C192.128 84.8564 210.273 93.4857 214.009 97.2698C188.586 118.55 129.348 135.703 95.7657 135.703C92.5303 135.703 89.4164 135.507 86.3659 135.212V153.167H231.463V0H86.3659ZM86.3659 99.6237V110.528C51.0521 104.237 41.2513 67.5294 41.2513 67.5294C41.2513 67.5294 58.2088 48.7458 86.3659 45.7058V57.6705C86.3395 57.6705 86.329 57.6652 86.3078 57.6652C71.5353 55.8919 59.9875 69.6933 59.9875 69.6933C59.9875 69.6933 66.458 92.9367 86.3659 99.6237ZM23.6498 65.9408C23.6498 65.9408 44.5763 35.0604 86.3659 31.8673V20.6679C40.0796 24.3782 0 63.5764 0 63.5764C0 63.5764 22.6998 129.206 86.3659 135.212V123.305C39.6468 117.426 23.6498 65.9408 23.6498 65.9408Z" fill="#77B900"/>
</svg>
