<svg width="803" height="195" viewBox="0 0 803 195" fill="none" xmlns="http://www.w3.org/2000/svg">
<path fill-rule="evenodd" clip-rule="evenodd" d="M70.0669 45.792H124.938C154.399 45.792 165.49 60.7067 163.776 82.6184C160.943 118.793 139.074 138.807 110.066 138.807H95.4205C91.4404 138.807 88.7634 141.442 87.6869 148.58L81.469 190.081C81.0582 192.772 79.6418 194.33 77.5172 194.542H43.042C39.7984 194.542 38.6512 192.064 39.501 186.696L60.5204 53.653C61.3419 48.3274 64.2597 45.792 70.0669 45.792Z" fill="#009EE3"/>
<path fill-rule="evenodd" clip-rule="evenodd" d="M308.291 43.3276C326.804 43.3276 343.885 53.3699 341.548 78.3977C338.716 108.142 322.781 124.601 297.64 124.672H275.672C272.513 124.672 270.983 127.249 270.162 132.533L265.913 159.543C265.275 163.623 263.179 165.634 260.091 165.634H239.652C236.395 165.634 235.262 163.552 235.984 158.892L252.853 50.6363C253.689 45.3106 255.686 43.3276 259.326 43.3276H308.249H308.291ZM275.006 101.287H291.649C302.059 100.89 308.971 93.6807 309.665 80.6781C310.09 72.6471 304.665 66.8965 296.039 66.939L280.374 67.0099L275.006 101.287ZM397.114 157.348C398.983 155.648 400.881 154.77 400.612 156.866L399.947 161.88C399.607 164.501 400.641 165.889 403.077 165.889H421.235C424.294 165.889 425.782 164.657 426.532 159.926L437.722 89.7006C438.288 86.1737 437.425 84.4457 434.748 84.4457H414.776C412.977 84.4457 412.099 85.4514 411.632 88.1992L410.895 92.5192C410.513 94.7713 409.479 95.1679 408.516 92.9017C405.131 84.8848 396.491 81.2872 384.437 81.5705C356.435 82.1512 337.554 103.411 335.529 130.663C333.971 151.739 349.069 168.297 368.984 168.297C383.431 168.297 389.89 164.047 397.17 157.39L397.114 157.348ZM381.902 146.541C369.848 146.541 361.449 136.923 363.191 125.139C364.933 113.355 376.208 103.737 388.261 103.737C400.315 103.737 408.714 113.355 406.972 125.139C405.23 136.923 393.969 146.541 381.902 146.541ZM473.259 84.2191H454.846C451.05 84.2191 449.506 87.0519 450.71 90.5363L473.571 157.475L451.149 189.33C449.266 191.993 450.724 194.415 453.373 194.415H474.067C475.273 194.555 476.494 194.344 477.583 193.809C478.673 193.274 479.586 192.438 480.214 191.398L550.524 90.5504C552.691 87.4485 551.671 84.1908 548.116 84.1908H528.527C525.171 84.1908 523.825 85.5222 521.899 88.3125L492.579 130.805L479.477 88.2134C478.713 85.6355 476.8 84.2191 473.274 84.2191H473.259Z" fill="#113984"/>
<path fill-rule="evenodd" clip-rule="evenodd" d="M623.667 43.3277C642.179 43.3277 659.261 53.37 656.924 78.3978C654.091 108.142 638.157 124.601 613.016 124.672H591.062C587.903 124.672 586.373 127.249 585.552 132.533L581.303 159.543C580.665 163.623 578.569 165.634 575.481 165.634H555.042C551.785 165.634 550.652 163.552 551.374 158.892L568.272 50.6079C569.107 45.2823 571.104 43.2993 574.745 43.2993H623.667V43.3277ZM590.382 101.287H607.024C617.435 100.89 624.347 93.6807 625.041 80.6781C625.466 72.6472 620.041 66.8966 611.415 66.939L595.75 67.0099L590.382 101.287ZM712.49 157.348C714.359 155.648 716.257 154.77 715.988 156.866L715.322 161.88C714.982 164.501 716.016 165.889 718.453 165.889H736.611C739.67 165.889 741.158 164.657 741.908 159.926L753.098 89.7006C753.664 86.1738 752.8 84.4458 750.123 84.4458H730.18C728.382 84.4458 727.503 85.4514 727.036 88.1992L726.3 92.5192C725.917 94.7713 724.883 95.1679 723.92 92.9017C720.535 84.8849 711.895 81.2872 699.841 81.5705C671.839 82.1512 652.958 103.411 650.933 130.663C649.375 151.739 664.474 168.297 684.388 168.297C698.835 168.297 705.294 164.047 712.575 157.39L712.49 157.348ZM697.292 146.541C685.238 146.541 676.839 136.923 678.581 125.139C680.323 113.355 691.598 103.737 703.651 103.737C715.705 103.737 724.104 113.355 722.362 125.139C720.62 136.923 709.345 146.541 697.292 146.541ZM781.043 166.002H760.081C759.716 166.018 759.352 165.954 759.015 165.813C758.679 165.673 758.377 165.46 758.132 165.189C757.887 164.919 757.705 164.597 757.599 164.248C757.492 163.899 757.464 163.53 757.517 163.169L775.93 46.5146C776.106 45.7184 776.546 45.0052 777.179 44.4909C777.811 43.9765 778.599 43.6914 779.415 43.6818H800.377C800.742 43.6655 801.106 43.7299 801.442 43.8704C801.779 44.0109 802.081 44.2241 802.326 44.4948C802.571 44.7654 802.753 45.0867 802.859 45.4359C802.966 45.785 802.993 46.1534 802.941 46.5146L784.528 163.169C784.358 163.971 783.92 164.69 783.287 165.21C782.654 165.73 781.863 166.019 781.043 166.03V166.002Z" fill="#009EE3"/>
<path fill-rule="evenodd" clip-rule="evenodd" d="M35.7476 0H90.6756C106.143 0 124.499 0.49574 136.765 11.3312C144.966 18.569 149.272 30.0843 148.281 42.492C144.91 84.4316 119.825 107.93 86.1714 107.93H59.0898C54.4724 107.93 51.4271 110.989 50.124 119.261L42.5605 167.419C42.0647 170.535 40.7191 172.376 38.3112 172.603H4.41679C0.663328 172.603 -0.668101 169.77 0.309215 163.509L24.6713 9.14994C25.6486 2.9461 29.0622 0 35.7476 0Z" fill="#113984"/>
<path fill-rule="evenodd" clip-rule="evenodd" d="M50.9171 114.374L60.5062 53.6531C61.3418 48.3274 64.2596 45.7778 70.0669 45.7778H124.938C134.017 45.7778 141.368 47.1942 147.119 49.8146C141.609 87.1509 117.46 107.887 85.8456 107.887H58.8065C55.1805 107.901 52.5176 109.714 50.9171 114.374Z" fill="#172C70"/>
</svg>
