<svg width="803" height="234" viewBox="0 0 803 234" fill="none" xmlns="http://www.w3.org/2000/svg">
<path d="M153.455 84.4611C168.563 95.255 187.07 101.606 207.059 101.606V63.1607C203.276 63.1615 199.503 62.7672 195.802 61.9835V92.2454C175.814 92.2454 157.309 85.8944 142.198 75.1013V153.557C142.198 192.804 110.365 224.618 71.1 224.618C56.4493 224.618 42.832 220.191 31.5201 212.599C44.4308 225.793 62.4356 233.978 82.3549 233.978C121.622 233.978 153.457 202.164 153.457 162.915V84.4611H153.455ZM167.342 45.6746C159.621 37.2439 154.552 26.3488 153.455 14.3038V9.35889H142.787C145.472 24.6681 154.631 37.7473 167.342 45.6746ZM56.3553 182.482C52.0416 176.829 49.7105 169.913 49.7209 162.803C49.7209 144.852 64.2809 130.298 82.244 130.298C85.5918 130.297 88.9194 130.809 92.1097 131.821V92.5168C88.3814 92.0061 84.6185 91.7892 80.8573 91.8687V122.461C77.6645 121.45 74.3353 120.936 70.9868 120.939C53.0237 120.939 38.4645 135.492 38.4645 153.444C38.4645 166.138 45.7421 177.128 56.3553 182.482Z" fill="#FF004F"/>
<path d="M142.198 75.1005C157.309 85.8936 175.814 92.2446 195.802 92.2446V61.9827C184.645 59.6074 174.768 53.78 167.342 45.6746C154.631 37.7465 145.472 24.6673 142.787 9.35889H114.766V162.913C114.702 180.815 100.167 195.31 82.2425 195.31C71.6798 195.31 62.296 190.277 56.353 182.482C45.7405 177.128 38.4629 166.137 38.4629 153.445C38.4629 135.494 53.0221 120.94 70.9852 120.94C74.4269 120.94 77.7441 121.475 80.8557 122.462V91.8695C42.2804 92.6661 11.2565 124.169 11.2565 162.914C11.2565 182.255 18.9821 199.789 31.521 212.6C42.8328 220.191 56.4501 224.619 71.1009 224.619C110.367 224.619 142.198 192.803 142.198 153.557V75.1005H142.198Z" fill="black"/>
<path d="M195.802 61.9828V53.8002C185.741 53.8155 175.878 50.9993 167.342 45.6738C174.898 53.9423 184.848 59.6436 195.802 61.9828ZM142.787 9.35896C142.531 7.8959 142.334 6.4232 142.198 4.94487V0H103.508V153.556C103.446 171.455 88.9114 185.95 70.9852 185.95C65.7223 185.95 60.7534 184.701 56.3529 182.483C62.2959 190.277 71.6798 195.309 82.2425 195.309C100.165 195.309 114.703 180.816 114.766 162.914V9.35896H142.787ZM80.8573 91.8696V83.1587C77.6244 82.717 74.365 82.4954 71.1016 82.497C31.8325 82.4962 0 114.312 0 153.556C0 178.16 12.5107 199.843 31.5218 212.598C18.9829 199.788 11.2573 182.254 11.2573 162.913C11.2573 124.169 42.2804 92.6662 80.8573 91.8696Z" fill="#00F2EA"/>
<path d="M644.107 192.446C672.203 192.446 694.981 169.853 694.981 141.986C694.981 114.119 672.203 91.522 644.107 91.522H636.443C664.54 91.522 687.317 114.118 687.317 141.986C687.317 169.853 664.54 192.446 636.443 192.446H644.107Z" fill="#FF004F"/>
<path d="M635.748 91.522H628.084C599.989 91.522 577.208 114.118 577.208 141.986C577.208 169.853 599.989 192.446 628.084 192.446H635.748C607.649 192.446 584.871 169.853 584.871 141.986C584.871 114.119 607.649 91.522 635.748 91.522Z" fill="#00F2EA"/>
<path d="M248.98 68.7144V94.2923H278.94V191.756H308.913V94.9829H333.302L341.664 68.7152L248.98 68.7144ZM494.282 68.7144V94.2923H524.242V191.756H554.215V94.9829H578.603L586.965 68.7152L494.282 68.7144ZM347.244 83.2294C347.244 75.2146 353.786 68.7144 361.867 68.7144C369.956 68.7144 376.504 75.2146 376.504 83.2294C376.504 91.2449 369.96 97.7452 361.867 97.7452C353.786 97.7412 347.244 91.2449 347.244 83.2294ZM347.244 108.117H376.504V191.756H347.244V108.117ZM389.05 68.7144V191.755H418.321V159.961L427.381 151.659L455.95 192.445H487.307L446.188 132.999L483.123 97.0506H447.584L418.321 126.081V68.7144H389.05ZM704.731 68.7144V191.755H734.006V159.961L743.062 151.659L771.639 192.445H803L761.881 132.999L798.815 97.0506H763.277L734.006 126.081V68.7144H704.731Z" fill="black"/>
<path d="M636.44 192.446C664.535 192.446 687.316 169.853 687.316 141.986C687.316 114.119 664.535 91.522 636.44 91.522H635.745C607.648 91.522 584.871 114.118 584.871 141.986C584.871 169.853 607.648 192.446 635.745 192.446H636.44ZM611.353 141.986C611.353 128.43 622.434 117.45 636.099 117.45C649.754 117.45 660.834 128.43 660.834 141.986C660.834 155.541 649.754 166.528 636.099 166.528C622.434 166.525 611.353 155.541 611.353 141.986Z" fill="black"/>
</svg>
